<svg xmlns="http://www.w3.org/2000/svg" version="1.1" xmlns:xlink="http://www.w3.org/1999/xlink" xmlns:svgjs="http://svgjs.dev/svgjs" width="2000" height="651" viewBox="0 0 2000 651"><g transform="matrix(1,0,0,1,-1.2112696095522324,-0.8344193075779458)"><svg viewBox="0 0 396 129" data-background-color="#ffffff" preserveAspectRatio="xMidYMid meet" height="651" width="2000" xmlns="http://www.w3.org/2000/svg" xmlns:xlink="http://www.w3.org/1999/xlink"><g id="tight-bounds" transform="matrix(1,0,0,1,0.24008861730862918,0.16552668462190923)"><svg viewBox="0 0 395.52 128.66912755396865" height="128.66912755396865" width="395.52"><g><svg viewBox="0 0 395.52 128.66912755396865" height="128.66912755396865" width="395.52"><g><svg viewBox="0 0 395.52 128.66912755396865" height="128.66912755396865" width="395.52"><g id="textblocktransform"><svg viewBox="0 0 395.52 128.66912755396865" height="128.66912755396865" width="395.52" id="textblock"><g><svg viewBox="0 0 395.52 107.3745953967816" height="107.3745953967816" width="395.52"><path d="M394.594 23.03C392.735 11.884 387.435 8.786 387.435 8.786 371.165-2.694 350.86-0.22 332.619 1.43 300.414 1.497 268.339 3.949 236.208 5.264 168.767 5.465 100.749 2.166 33.643 10.302 27.339 12.798-6.54 10.792 1.121 24.456 3.129 30.141 10.456 36.449 10.232 41.665 11.236 42.579 12.631 40.484 13.226 41.799 15.309 45.343 18.711 43.671 21.501 45.767 17.614 51.362 20.403 56.02 23.062 60.902 18.377 62.173 12.371 61.571 9.675 65.784 9.396 68.838 7.89 68.258 6.235 68.124 5.026 68.035 2.59 68.369 2.999 69.328 4.394 72.605-1.594 74.499 2.162 77.709-0.422 81.187 3.948 84.196 3.353 87.963 3.278 88.721 3.687 89.367 4.338 89.546 7.22 90.504 3.018 92.377 3.464 94.405 33.029 108.27 65.104 98.685 95.394 105.06 103.259 100.602 97.346 106.643 100.489 105.707 102.943 104.614 104.728 109.14 107.499 106.576 107.927 105.84 107.276 104.102 108.8 104.436 109.6 104.614 110.307 104.57 110.418 103.544 110.586 102.006 109.117 102.965 108.726 102.162 112.947 98.106 111.906 107.757 115.866 107.356 115.68 106.175 114.528 104.481 116.889 104.704 119.232 103.01 119.306 101.605 121.389 105.417 121.463 106.242 121.835 106.821 122.43 107.222 128.938 103.076 135.409 108.694 142.233 106.821 146.417 104.77 150.433 107.936 154.672 107.156 156.16 106.531 157.666 105.417 159.098 107.289 176.632 107.691 195.319 106.019 211.943 107.356 256.364 104.86 303.836 108.382 350.674 105.083 361.719 103.812 373.192 102.006 383.958 100.558 383.958 100.558 392.679 96.59 392.679 78.757S394.538 63.153 394.817 48.954C395.096 34.755 396.398 34.175 394.538 23.03Z" opacity="1" fill="#542633" data-fill-palette-color="tertiary"></path><g transform="matrix(1,0,0,1,55.76832,26.068561146666667)"><svg width="283.98335999999995" viewBox="-0.1 -40.7 298.67 58.1" height="55.237473103448266" data-palette-color="#ffffff"><path d="M45-33.95L45-33.95Q45-35.7 43.4-37.25L43.4-37.25Q41.1-39.45 37.05-39.45L37.05-39.45Q33.5-39.45 29.2-37.9L29.2-37.9Q26.95-37.1 25.3-35.7L25.3-35.7Q22.75-33.5 22.75-31.3L22.75-31.3Q22.75-28.35 26.5-26L26.5-26Q27.9-25.15 32.13-23.23 36.35-21.3 38.3-20.1L38.3-20.1Q41.25-18.3 42.38-16.25 43.5-14.2 43.5-12.45L43.5-12.45Q43.5-9.95 41.85-7.35L41.85-7.35Q38.95-2.7 33.35 0.65L33.35 0.65Q26.9 4.55 17.8 4.55L17.8 4.55Q9.05 4.55 3.9 0.1L3.9 0.1Q-0.1-3.3-0.1-8.65L-0.1-8.65Q-0.1-12.05 2.38-16.15 4.85-20.25 8.45-21.95L8.45-21.95Q9.2-22.25 9.58-22.15 9.95-22.05 8.95-21.2L8.95-21.2Q6.8-19.5 5.5-17.45L5.5-17.45Q2.7-13.05 2.7-7.9L2.7-7.9Q2.7-4.5 4.6-1.95L4.6-1.95Q8 2.6 16.4 3.2L16.4 3.2Q17.35 3.3 19.23 3.3 21.1 3.3 24.33 2.63 27.55 1.95 30.55 0.4L30.55 0.4Q37-3 38.9-8.4L38.9-8.4Q39.5-10 39.5-11.5L39.5-11.5Q39.5-14.9 36.45-17.5L36.45-17.5Q34.8-18.8 29.73-20.98 24.65-23.15 22.9-24.3L22.9-24.3Q19.05-26.9 19.05-30.45L19.05-30.45Q19.05-33.55 22.5-36.5L22.5-36.5Q27.45-40.7 36.5-40.7L36.5-40.7Q40.75-40.7 43.43-39.43 46.1-38.15 46.7-35.6L46.7-35.6Q46.8-35.1 46.8-34.6L46.8-34.6Q46.8-32.65 45-31.1L45-31.1Q43.75-30.1 41.65-29.5L41.65-29.5Q40.75-29.25 40.65-29.7L40.65-29.7Q40.55-30.35 41.9-30.5L41.9-30.5Q44.3-30.8 44.85-32.9L44.85-32.9Q45-33.45 45-33.95ZM63.1-13.55Q62.2-12.65 60.55-9.47 58.9-6.3 58.57-4.73 58.25-3.15 58.25-2.18 58.25-1.2 59-1.2L59-1.2Q59.95-1.2 61.35-2.95L61.35-2.95Q63.4-5.5 65.4-9.6L65.4-9.6Q65.6-10.05 65.85-10.1L65.85-10.1Q66.25-10.25 66.25-9.8L66.25-9.8Q66.25-9.55 66.1-9.2L66.1-9.2Q61.5 0.1 58.35 0.1L58.35 0.1Q56.9 0.1 56-1.3L56-1.3Q55.55-2.05 55.55-3.3 55.55-4.55 56.05-6.35L56.05-6.35Q52.05 0.1 49.15 0.1L49.15 0.1Q48.35 0.1 47.7-0.4L47.7-0.4Q46.2-1.45 46.2-4L46.2-4Q46.2-8.9 50.45-13.95L50.45-13.95Q52.85-16.75 56.35-17.6L56.35-17.6Q57.3-17.85 58.15-17.85L58.15-17.85Q60.45-17.85 62.05-16.25L62.05-16.25Q62.55-15.7 62.35-15.2 62.15-14.7 61.5-14.8L61.5-14.8Q60.95-16.6 59.1-16.6L59.1-16.6Q56.95-16.6 53.8-13.2L53.8-13.2Q52-11.2 50.45-8.5L50.45-8.5Q48.5-5.25 48.5-3.3 48.5-1.35 49.75-1.35L49.75-1.35Q52.75-1.35 57.6-10.55L57.6-10.55Q58.55-12.4 59.2-13.08 59.85-13.75 60.85-13.75L60.85-13.75Q61.05-13.75 61.87-13.6 62.7-13.45 63.1-13.55L63.1-13.55ZM77.95-13.6L77.95-13.6Q77.95-16.45 75.6-16.45L75.6-16.45Q75.4-16.45 75.2-16.45L75.2-16.45Q74.3-16.35 74.15-16.8 74-17.25 74.6-17.4 75.2-17.55 75.9-17.45L75.9-17.45Q78.5-17.05 79.45-15L79.45-15Q80.1-13.75 80.1-12.55L80.1-12.55Q80.1-8.25 76.95-4.1L76.95-4.1Q73.8 0.1 68.8 0.1L68.8 0.1Q66.95 0.1 65.8-0.95 64.65-2 64.65-3.75L64.65-3.75Q64.65-5.85 67.05-10.85L67.05-10.85Q62.95-3.1 61.75-1.95L61.75-1.95Q61.25-1.5 61.25-2.25L61.25-2.25Q61.25-2.4 61.35-2.6L61.35-2.6Q63.1-4.9 68.32-15.1 73.55-25.3 75.65-28.45L75.65-28.45Q77.35-30.9 78.95-30.9L78.95-30.9Q78.95-30.9 79-30.9L79-30.9 79.25-30.9Q79.3-30.9 80.12-30.75 80.95-30.6 81.35-30.7L81.35-30.7Q79.7-28.95 76.15-23.7L76.15-23.7Q67.35-10.65 67.35-4.2L67.35-4.2Q67.35-1.55 69.05-1.2L69.05-1.2Q69.2-1.15 69.4-1.15L69.4-1.15Q70.95-1.15 73.27-3.93 75.6-6.7 77.1-10.25L77.1-10.25Q77.95-12.1 77.95-13.6ZM111.69 5.05L111.69 5.05Q107.79 5.05 104.22 3.53 100.64 2 98.52-0.95 96.39-3.9 95.94-7.4L95.94-7.4Q95.74-8.9 95.74-10.7 95.74-12.5 96.19-15.45 96.64-18.4 98.17-21.85 99.69-25.3 101.79-27.95L101.79-27.95Q100.94-31.3 100.94-34.13 100.94-36.95 101.59-39.4L101.59-39.4Q101.69-39.8 101.92-39.98 102.14-40.15 102.24-40.15L102.24-40.15Q102.74-40.15 102.54-38.93 102.34-37.7 102.34-35.43 102.34-33.15 102.99-29.65L102.99-29.65Q106.99-34.8 112.39-37.15L112.39-37.15Q116.54-38.95 121.09-38.95L121.09-38.95Q122.39-38.95 123.79-38.8L123.79-38.8Q131.49-37.95 134.19-32.9L134.19-32.9Q135.29-30.8 135.29-28.55 135.29-26.3 134.24-23.9L134.24-23.9Q132.04-19.1 126.69-16.8L126.69-16.8Q123.24-15.3 119.14-15.3L119.14-15.3Q117.39-15.3 115.59-15.55L115.59-15.55Q106.64-16.85 103.19-24.05L103.19-24.05Q101.99-22.35 100.72-18.35 99.44-14.35 99.24-12.2 99.04-10.05 99.04-8.6 99.04-7.15 99.24-5.6L99.24-5.6Q99.59-2.85 101.34-0.63 103.09 1.6 106.02 2.48 108.94 3.35 111.09 3.35L111.09 3.35Q118.04 3.35 122.94 0.45L122.94 0.45Q125.89-1.3 127.57-3.53 129.24-5.75 131.14-9.65L131.14-9.65Q131.44-10.3 131.77-10.1 132.09-9.9 131.74-9.15L131.74-9.15Q129.84-5.3 128.22-3.05 126.59-0.8 123.79 1.15L123.79 1.15Q118.19 5.05 111.69 5.05ZM104.19-25.65L104.19-25.65Q107.74-16.6 118.99-16.6L118.99-16.6Q125.34-16.6 129.17-20.15 132.99-23.7 132.99-28.2 132.99-32.7 129.09-35.2L129.09-35.2Q126.19-37.05 121.94-37.05 117.69-37.05 113.39-34.6L113.39-34.6Q107.99-31.45 104.19-25.65ZM140.19-17.5L140.19-17.5Q143.84-17.5 143.84-12.9L143.84-12.9Q143.84-10.8 142.74-8.4L142.74-8.4Q141.34-5.15 138.54-2.5L138.54-2.5Q139.19-1.25 140.89-1.25L140.89-1.25Q142.24-1.25 143.44-2.6L143.44-2.6Q144.94-4.15 145.59-5.33 146.24-6.5 146.54-7.05 146.84-7.6 147.31-8.63 147.79-9.65 147.89-9.88 147.99-10.1 148.24-10.1L148.24-10.1Q148.74-10.15 148.74-9.75L148.74-9.75Q148.74-9.6 148.64-9.4L148.64-9.4 148.34-8.7Q148.04-8 147.89-7.7 147.74-7.4 147.36-6.63 146.99-5.85 146.71-5.4 146.44-4.95 145.96-4.2 145.49-3.45 145.11-3 144.74-2.55 144.19-2 143.64-1.45 143.14-1.15L143.14-1.15Q141.89-0.4 140.79-0.4L140.79-0.4Q138.74-0.4 137.59-1.7L137.59-1.7Q135.29 0 133.34 0L133.34 0Q129.69 0 129.69-4.6L129.69-4.6Q129.69-6.7 130.79-9.1L130.79-9.1Q132.29-12.6 135.01-15.05 137.74-17.5 140.19-17.5ZM140.74-15.95L140.74-15.95Q139.39-15.95 137.54-14.15 135.69-12.35 134.24-9.25L134.24-9.25Q132.49-5.65 132.49-3.35 132.49-1.05 134.24-1.05L134.24-1.05Q135.49-1.05 137.04-2.4L137.04-2.4Q136.24-3.55 136.24-4.85L136.24-4.85Q136.34-7 137.99-7L137.99-7Q138.64-7 139.06-6.55 139.49-6.1 139.49-5.73 139.49-5.35 139.39-4.95L139.39-4.95Q140.24-6.2 141.34-8.5L141.34-8.5Q142.59-11.05 142.59-13.5 142.59-15.95 140.74-15.95ZM141.89 17.4L141.89 17.4Q139.14 17.4 139.14 14.65L139.14 14.65Q139.14 10.7 144.29-1.45L144.29-1.45Q143.69-2.45 143.69-3.1L143.69-3.1Q143.69-5.2 144.64-5.9L144.64-5.9Q145.34-6.5 145.81-6.5 146.29-6.5 146.44-6.45L146.44-6.45Q152.14-19.3 156.69-27.8L156.69-27.8Q157.59-29.6 158.54-30.45 159.49-31.3 160.94-31.3L160.94-31.3Q161.14-31.3 161.94-31.15 162.74-31 163.14-31.05L163.14-31.05Q160.79-28.85 156.54-21.35 152.29-13.85 148.49-5.3L148.49-5.3Q149.64-3.9 150.09-1.55L150.09-1.55 150.24-0.9Q150.34-0.9 150.39-0.9L150.39-0.9Q151.74-0.9 153.24-2.48 154.74-4.05 155.69-5.73 156.64-7.4 157.24-8.68 157.84-9.95 157.99-10.05 158.14-10.15 158.26-10.13 158.39-10.1 158.49-10.03 158.59-9.95 158.59-9.78 158.59-9.6 158.49-9.4L158.49-9.4Q154.34 0.05 150.34 0.05L150.34 0.05Q150.39 0.85 150.39 2.68 150.39 4.5 149.49 8.1 148.59 11.7 146.46 14.55 144.34 17.4 141.89 17.4ZM141.84 14.65L141.84 14.65Q141.84 16.1 142.64 16.1L142.64 16.1Q143.59 16.1 145.26 13.88 146.94 11.65 148.11 7.78 149.29 3.9 149.29 0.75L149.29 0.75Q149.29 0.5 149.29 0.25L149.29 0.25Q149.04 0.25 148.84 0.25L148.84 0.25Q147.39 0.25 146.39-0.55L146.39-0.55Q141.84 10.95 141.84 14.65ZM148.89-0.7L148.89-0.7 149.19-0.7Q149.04-2.85 147.99-4.15L147.99-4.15 146.89-1.65Q147.39-0.7 148.89-0.7ZM151.78 17.4L151.78 17.4Q149.03 17.4 149.03 14.65L149.03 14.65Q149.03 10.7 154.18-1.45L154.18-1.45Q153.58-2.45 153.58-3.1L153.58-3.1Q153.58-5.2 154.53-5.9L154.53-5.9Q155.23-6.5 155.71-6.5 156.18-6.5 156.33-6.45L156.33-6.45Q162.03-19.3 166.58-27.8L166.58-27.8Q167.48-29.6 168.43-30.45 169.38-31.3 170.83-31.3L170.83-31.3Q171.03-31.3 171.83-31.15 172.63-31 173.03-31.05L173.03-31.05Q170.68-28.85 166.43-21.35 162.18-13.85 158.38-5.3L158.38-5.3Q159.53-3.9 159.98-1.55L159.98-1.55 160.13-0.9Q160.23-0.9 160.28-0.9L160.28-0.9Q161.63-0.9 163.13-2.48 164.63-4.05 165.58-5.73 166.53-7.4 167.13-8.68 167.73-9.95 167.88-10.05 168.03-10.15 168.16-10.13 168.28-10.1 168.38-10.03 168.48-9.95 168.48-9.78 168.48-9.6 168.38-9.4L168.38-9.4Q164.23 0.05 160.23 0.05L160.23 0.05Q160.28 0.85 160.28 2.68 160.28 4.5 159.38 8.1 158.48 11.7 156.36 14.55 154.23 17.4 151.78 17.4ZM151.73 14.65L151.73 14.65Q151.73 16.1 152.53 16.1L152.53 16.1Q153.48 16.1 155.16 13.88 156.83 11.65 158.01 7.78 159.18 3.9 159.18 0.75L159.18 0.75Q159.18 0.5 159.18 0.25L159.18 0.25Q158.93 0.25 158.73 0.25L158.73 0.25Q157.28 0.25 156.28-0.55L156.28-0.55Q151.73 10.95 151.73 14.65ZM158.78-0.7L158.78-0.7 159.08-0.7Q158.93-2.85 157.88-4.15L157.88-4.15 156.78-1.65Q157.28-0.7 158.78-0.7ZM169.83-7.7L169.83-7.7Q169.13-6 169.13-3.9L169.13-3.9Q169.13-2.5 169.76-1.68 170.38-0.85 171.53-0.85L171.53-0.85Q176.08-0.85 179.78-9.4L179.78-9.4Q180.13-10.2 180.63-10.1L180.63-10.1Q180.83-10.05 180.83-9.85 180.83-9.65 179.71-7.23 178.58-4.8 177.43-3.3L177.43-3.3Q174.88 0.2 171.13 0.2L171.13 0.2Q169.13 0.2 167.73-1.1 166.33-2.4 166.33-4.65 166.33-6.9 167.41-9.43 168.48-11.95 170.33-14.13 172.18-16.3 174.58-17.3L174.58-17.3Q175.73-17.8 176.78-17.8 177.83-17.8 178.73-17.2L178.73-17.2Q179.58-16.5 179.58-15.65L179.58-15.65Q179.58-12.65 175.98-9.9L175.98-9.9Q174.88-9.05 172.88-8.38 170.88-7.7 169.83-7.7ZM178.23-15.7L178.23-15.7Q178.23-16.7 177.43-16.7L177.43-16.7Q176.03-16.7 173.18-13.25L173.18-13.25Q171.48-11.15 170.18-8.55L170.18-8.55Q171.03-8.55 172.66-9.15 174.28-9.75 175.48-10.75L175.48-10.75Q178.23-13.1 178.23-15.7ZM182.13-7.7L182.13-7.7Q181.43-6 181.43-3.9L181.43-3.9Q181.43-2.5 182.05-1.68 182.68-0.85 183.83-0.85L183.83-0.85Q188.38-0.85 192.08-9.4L192.08-9.4Q192.43-10.2 192.93-10.1L192.93-10.1Q193.13-10.05 193.13-9.85 193.13-9.65 192-7.23 190.88-4.8 189.73-3.3L189.73-3.3Q187.18 0.2 183.43 0.2L183.43 0.2Q181.43 0.2 180.03-1.1 178.63-2.4 178.63-4.65 178.63-6.9 179.7-9.43 180.78-11.95 182.63-14.13 184.48-16.3 186.88-17.3L186.88-17.3Q188.03-17.8 189.08-17.8 190.13-17.8 191.03-17.2L191.03-17.2Q191.88-16.5 191.88-15.65L191.88-15.65Q191.88-12.65 188.28-9.9L188.28-9.9Q187.18-9.05 185.18-8.38 183.18-7.7 182.13-7.7ZM190.53-15.7L190.53-15.7Q190.53-16.7 189.73-16.7L189.73-16.7Q188.33-16.7 185.48-13.25L185.48-13.25Q183.78-11.15 182.48-8.55L182.48-8.55Q183.33-8.55 184.95-9.15 186.58-9.75 187.78-10.75L187.78-10.75Q190.53-13.1 190.53-15.7ZM247.32-33.95L247.32-33.95Q247.32-35.7 245.72-37.25L245.72-37.25Q243.42-39.45 239.37-39.45L239.37-39.45Q235.82-39.45 231.52-37.9L231.52-37.9Q229.27-37.1 227.62-35.7L227.62-35.7Q225.07-33.5 225.07-31.3L225.07-31.3Q225.07-28.35 228.82-26L228.82-26Q230.22-25.15 234.45-23.23 238.67-21.3 240.62-20.1L240.62-20.1Q243.57-18.3 244.7-16.25 245.82-14.2 245.82-12.45L245.82-12.45Q245.82-9.95 244.17-7.35L244.17-7.35Q241.27-2.7 235.67 0.65L235.67 0.65Q229.22 4.55 220.12 4.55L220.12 4.55Q211.37 4.55 206.22 0.1L206.22 0.1Q202.22-3.3 202.22-8.65L202.22-8.65Q202.22-12.05 204.7-16.15 207.17-20.25 210.77-21.95L210.77-21.95Q211.52-22.25 211.9-22.15 212.27-22.05 211.27-21.2L211.27-21.2Q209.12-19.5 207.82-17.45L207.82-17.45Q205.02-13.05 205.02-7.9L205.02-7.9Q205.02-4.5 206.92-1.95L206.92-1.95Q210.32 2.6 218.72 3.2L218.72 3.2Q219.67 3.3 221.55 3.3 223.42 3.3 226.65 2.63 229.87 1.95 232.87 0.4L232.87 0.4Q239.32-3 241.22-8.4L241.22-8.4Q241.82-10 241.82-11.5L241.82-11.5Q241.82-14.9 238.77-17.5L238.77-17.5Q237.12-18.8 232.05-20.98 226.97-23.15 225.22-24.3L225.22-24.3Q221.37-26.9 221.37-30.45L221.37-30.45Q221.37-33.55 224.82-36.5L224.82-36.5Q229.77-40.7 238.82-40.7L238.82-40.7Q243.07-40.7 245.75-39.43 248.42-38.15 249.02-35.6L249.02-35.6Q249.12-35.1 249.12-34.6L249.12-34.6Q249.12-32.65 247.32-31.1L247.32-31.1Q246.07-30.1 243.97-29.5L243.97-29.5Q243.07-29.25 242.97-29.7L242.97-29.7Q242.87-30.35 244.22-30.5L244.22-30.5Q246.62-30.8 247.17-32.9L247.17-32.9Q247.32-33.45 247.32-33.95ZM259.12-2.25L259.12-2.25Q259.12-0.85 260.12-0.85L260.12-0.85Q262.47-0.85 266.77-9.65L266.77-9.65Q267.12-10.35 267.4-10.2 267.67-10.05 267.67-9.8 267.67-9.55 267.1-8.38 266.52-7.2 265.95-6.13 265.37-5.05 264.27-3.3L264.27-3.3Q261.97 0.2 259.37 0.2L259.37 0.2Q257.67 0.2 256.67-1.2L256.67-1.2Q256.22-1.85 256.22-2.98 256.22-4.1 256.72-5.7 257.22-7.3 259.47-10.9L259.47-10.9Q260.02-11.8 260.02-12.33 260.02-12.85 259.17-12.85 258.32-12.85 255.92-10.6L255.92-10.6Q252.32-7.3 248.92-0.7L248.92-0.7Q248.57 0.05 247.07 0.05L247.07 0.05Q245.72 0.15 245.37 0.35L245.37 0.35Q254.87-19.4 259.12-27.2L259.12-27.2Q260.07-28.95 260.8-29.65 261.52-30.35 262.52-30.35L262.52-30.35Q262.77-30.35 263.57-30.23 264.37-30.1 264.77-30.15L264.77-30.15Q263.27-28.6 259.4-21.58 255.52-14.55 251.97-7.3L251.97-7.3Q254.32-10.25 256.2-11.9 258.07-13.55 260.77-15.03 263.47-16.5 264.72-16.5L264.72-16.5Q265.02-16.5 265.27-16.4L265.27-16.4Q259.12-5.6 259.12-2.25ZM275.92-17.5L275.92-17.5Q279.57-17.5 279.57-12.9L279.57-12.9Q279.57-10.8 278.47-8.4L278.47-8.4Q277.07-5.15 274.27-2.5L274.27-2.5Q274.92-1.25 276.62-1.25L276.62-1.25Q277.97-1.25 279.17-2.6L279.17-2.6Q280.67-4.15 281.32-5.33 281.97-6.5 282.27-7.05 282.57-7.6 283.04-8.63 283.52-9.65 283.62-9.88 283.72-10.1 283.97-10.1L283.97-10.1Q284.47-10.15 284.47-9.75L284.47-9.75Q284.47-9.6 284.37-9.4L284.37-9.4 284.07-8.7Q283.77-8 283.62-7.7 283.47-7.4 283.09-6.63 282.72-5.85 282.44-5.4 282.17-4.95 281.69-4.2 281.22-3.45 280.84-3 280.47-2.55 279.92-2 279.37-1.45 278.87-1.15L278.87-1.15Q277.62-0.4 276.52-0.4L276.52-0.4Q274.47-0.4 273.32-1.7L273.32-1.7Q271.02 0 269.07 0L269.07 0Q265.42 0 265.42-4.6L265.42-4.6Q265.42-6.7 266.52-9.1L266.52-9.1Q268.02-12.6 270.74-15.05 273.47-17.5 275.92-17.5ZM276.47-15.95L276.47-15.95Q275.12-15.95 273.27-14.15 271.42-12.35 269.97-9.25L269.97-9.25Q268.22-5.65 268.22-3.35 268.22-1.05 269.97-1.05L269.97-1.05Q271.22-1.05 272.77-2.4L272.77-2.4Q271.97-3.55 271.97-4.85L271.97-4.85Q272.07-7 273.72-7L273.72-7Q274.37-7 274.79-6.55 275.22-6.1 275.22-5.73 275.22-5.35 275.12-4.95L275.12-4.95Q275.97-6.2 277.07-8.5L277.07-8.5Q278.32-11.05 278.32-13.5 278.32-15.95 276.47-15.95ZM298.57-13.6L298.57-13.6Q298.57-11.4 297.42-8.75 296.27-6.1 294.24-3.65 292.22-1.2 289.32-0.3L289.32-0.3Q288.22 0 286.79 0 285.37 0 283.67-0.9L283.67-0.9 278.92 10.95Q278.17 12.55 277.52 13.05 276.87 13.55 276.27 13.55 275.67 13.55 275.54 13.55 275.42 13.55 274.64 13.4 273.87 13.25 273.47 13.3L273.47 13.3Q274.57 12.25 279.04 3.33 283.52-5.6 284.12-8.7L284.12-8.7Q283.57-7.9 283.07-7.85L283.07-7.85Q282.77-7.85 283.07-8.43 283.37-9 284.07-10.65L284.07-10.65Q284.97-12.8 284.97-14.63 284.97-16.45 284.27-16.75L284.27-16.75Q287.27-17.25 287.77-17.23 288.27-17.2 288.39-16.8 288.52-16.4 288.52-15.9L288.52-15.9Q288.52-12.85 287.12-9.1L287.12-9.1 288.12-10.7Q289.92-13.6 290.74-14.45 291.57-15.3 292.52-16.2L292.52-16.2Q293.97-17.6 295.32-17.6L295.32-17.6Q295.72-17.6 296.07-17.5L296.07-17.5Q298.57-16.85 298.57-13.6ZM296.17-14.1L296.17-14.1Q296.17-14.9 295.84-15.58 295.52-16.25 294.82-16.25L294.82-16.25Q293.07-16.25 290.74-13 288.42-9.75 284.07-1.65L284.07-1.65Q284.72-1 285.87-1 287.02-1 289.12-2.75L289.12-2.75Q292.47-5.55 294.72-9.7L294.72-9.7Q296.17-12.4 296.17-14.1Z" opacity="1" transform="matrix(1,0,0,1,0,0)" fill="#ffffff" class="wordmark-text-0" data-fill-palette-color="quaternary" id="text-0"></path></svg></g></svg></g><g transform="matrix(1,0,0,1,122.21567999999999,120.41483709715125)"><svg viewBox="0 0 151.08864 8.254290456817388" height="8.254290456817388" width="151.08864"><g transform="matrix(1,0,0,1,0,0)"><svg width="151.08864" viewBox="4.4 -37 860.21 47" height="8.254290456817388" data-palette-color="#542633"><path d="M6.45 0L6.45 0Q5.55 0 4.98-0.6 4.4-1.2 4.4-2.05L4.4-2.05 4.4-33Q4.4-33.85 4.98-34.43 5.55-35 6.4-35L6.4-35 23.95-35Q24.8-35 25.4-34.45 26-33.9 26-33.05L26-33.05Q26-32.25 25.4-31.7 24.8-31.15 23.95-31.15L23.95-31.15 8.2-31.15 8.5-31.55 8.5-19.3 8.25-19.85 21.7-19.85Q22.55-19.85 23.15-19.28 23.75-18.7 23.75-17.85L23.75-17.85Q23.75-17.1 23.15-16.53 22.55-15.95 21.7-15.95L21.7-15.95 8.15-15.95 8.5-16.4 8.5-2.05Q8.5-1.2 7.9-0.6 7.3 0 6.45 0ZM50.55-25.85L50.55-25.85Q51.45-25.85 52-25.28 52.55-24.7 52.55-23.85L52.55-23.85 52.55-10.2Q52.55-5.15 49.72-2.38 46.9 0.4 41.85 0.4L41.85 0.4Q36.85 0.4 34.02-2.38 31.2-5.15 31.2-10.2L31.2-10.2 31.2-23.85Q31.2-24.7 31.77-25.28 32.35-25.85 33.2-25.85L33.2-25.85Q34.1-25.85 34.65-25.28 35.2-24.7 35.2-23.85L35.2-23.85 35.2-10.2Q35.2-6.8 36.95-5.05 38.7-3.3 41.85-3.3L41.85-3.3Q45.1-3.3 46.82-5.05 48.55-6.8 48.55-10.2L48.55-10.2 48.55-23.85Q48.55-24.7 49.12-25.28 49.7-25.85 50.55-25.85ZM71.65 0.5L71.65 0.5Q67.65 0.5 64.65-1.2 61.65-2.9 60-5.88 58.35-8.85 58.35-12.75L58.35-12.75Q58.35-17.1 60.07-20.18 61.8-23.25 64.55-24.88 67.3-26.5 70.4-26.5L70.4-26.5Q72.75-26.5 74.87-25.65 77-24.8 78.67-23.18 80.34-21.55 81.34-19.28 82.34-17 82.4-14.2L82.4-14.2Q82.34-13.4 81.75-12.85 81.15-12.3 80.34-12.3L80.34-12.3 60.6-12.3 59.7-15.75 78.95-15.75 78.15-15.05 78.15-16.15Q78-18.2 76.82-19.68 75.65-21.15 73.95-21.95 72.25-22.75 70.4-22.75L70.4-22.75Q68.9-22.75 67.42-22.23 65.95-21.7 64.77-20.53 63.6-19.35 62.9-17.5 62.2-15.65 62.2-13.05L62.2-13.05Q62.2-10.15 63.37-7.95 64.55-5.75 66.65-4.48 68.75-3.2 71.5-3.2L71.5-3.2Q73.3-3.2 74.59-3.65 75.9-4.1 76.82-4.78 77.75-5.45 78.4-6.15L78.4-6.15Q79.05-6.6 79.7-6.6L79.7-6.6Q80.4-6.6 80.9-6.1 81.4-5.6 81.4-4.9L81.4-4.9Q81.4-4.05 80.59-3.4L80.59-3.4Q79.15-1.85 76.77-0.68 74.4 0.5 71.65 0.5ZM92.54-35L92.54-2.05Q92.54-1.2 91.94-0.6 91.34 0 90.49 0L90.49 0Q89.64 0 89.09-0.6 88.54-1.2 88.54-2.05L88.54-2.05 88.54-35Q88.54-35.85 89.12-36.43 89.69-37 90.54-37L90.54-37Q91.44-37 91.99-36.43 92.54-35.85 92.54-35L92.54-35ZM104.14-24.25L104.14-2.05Q104.14-1.2 103.57-0.6 102.99 0 102.14 0L102.14 0Q101.24 0 100.69-0.6 100.14-1.2 100.14-2.05L100.14-2.05 100.14-24.25Q100.14-25.1 100.72-25.68 101.29-26.25 102.14-26.25L102.14-26.25Q102.99-26.25 103.57-25.68 104.14-25.1 104.14-24.25L104.14-24.25ZM102.14-29.6L102.14-29.6Q100.89-29.6 100.29-30.1 99.69-30.6 99.69-31.65L99.69-31.65 99.69-32.35Q99.69-33.4 100.34-33.9 100.99-34.4 102.19-34.4L102.19-34.4Q103.39-34.4 103.99-33.9 104.59-33.4 104.59-32.35L104.59-32.35 104.59-31.65Q104.59-30.6 103.97-30.1 103.34-29.6 102.14-29.6ZM124.19-26.5L124.19-26.5Q127.59-26.5 129.54-25.1 131.49-23.7 132.31-21.35 133.14-19 133.14-16.1L133.14-16.1 133.14-2.05Q133.14-1.2 132.56-0.6 131.99 0 131.14 0L131.14 0Q130.29 0 129.71-0.6 129.14-1.2 129.14-2.05L129.14-2.05 129.14-16Q129.14-17.9 128.56-19.43 127.99-20.95 126.66-21.88 125.34-22.8 123.04-22.8L123.04-22.8Q120.94-22.8 119.19-21.88 117.44-20.95 116.39-19.43 115.34-17.9 115.34-16L115.34-16 115.34-2.05Q115.34-1.2 114.76-0.6 114.19 0 113.34 0L113.34 0Q112.49 0 111.91-0.6 111.34-1.2 111.34-2.05L111.34-2.05 111.34-23.85Q111.34-24.7 111.91-25.28 112.49-25.85 113.34-25.85L113.34-25.85Q114.24-25.85 114.79-25.28 115.34-24.7 115.34-23.85L115.34-23.85 115.34-20.3 114.34-19.2Q114.59-20.5 115.49-21.83 116.39-23.15 117.74-24.2 119.09-25.25 120.74-25.88 122.39-26.5 124.19-26.5ZM151.14-26.5L151.14-26.5Q153.34-26.5 155.19-25.78 157.04-25.05 158.41-23.9 159.79-22.75 160.56-21.5 161.34-20.25 161.34-19.15L161.34-19.15 160.34-19.75 160.34-24.1Q160.34-24.95 160.91-25.53 161.49-26.1 162.34-26.1L162.34-26.1Q163.24-26.1 163.79-25.53 164.34-24.95 164.34-24.1L164.34-24.1 164.34-2.2Q164.34 1.9 162.61 4.6 160.89 7.3 157.99 8.65 155.09 10 151.54 10L151.54 10Q150.04 10 148.21 9.6 146.39 9.2 144.99 8.63 143.59 8.05 143.24 7.45L143.24 7.45Q142.49 6.95 142.31 6.33 142.14 5.7 142.49 5.15L142.49 5.15Q142.99 4.45 143.69 4.45 144.39 4.45 145.49 4.9L145.49 4.9Q145.99 5.05 146.94 5.4 147.89 5.75 149.14 6.03 150.39 6.3 151.59 6.3L151.59 6.3Q155.84 6.3 158.09 4.08 160.34 1.85 160.34-1.8L160.34-1.8 160.34-6.45 160.89-6.2Q160.59-4.8 159.69-3.6 158.79-2.4 157.46-1.48 156.14-0.55 154.51-0.03 152.89 0.5 151.24 0.5L151.24 0.5Q147.74 0.5 144.96-1.25 142.19-3 140.56-6.05 138.94-9.1 138.94-13L138.94-13Q138.94-16.95 140.56-20 142.19-23.05 144.94-24.78 147.69-26.5 151.14-26.5ZM151.69-22.8L151.69-22.8Q149.09-22.8 147.09-21.53 145.09-20.25 143.94-18.05 142.79-15.85 142.79-13L142.79-13Q142.79-10.25 143.94-8.03 145.09-5.8 147.09-4.5 149.09-3.2 151.69-3.2L151.69-3.2Q154.29-3.2 156.29-4.48 158.29-5.75 159.44-7.95 160.59-10.15 160.59-13L160.59-13Q160.59-15.9 159.44-18.1 158.29-20.3 156.29-21.55 154.29-22.8 151.69-22.8ZM207.48-35.2L207.48-35.2Q208.33-35.2 208.91-34.58 209.48-33.95 209.48-33.15L209.48-33.15Q209.48-32.85 209.41-32.52 209.33-32.2 209.13-31.9L209.13-31.9 197.53-15.75 198.18-18.2 198.18-2.05Q198.18-1.2 197.61-0.6 197.03 0 196.23 0L196.23 0Q195.33 0 194.76-0.6 194.18-1.2 194.18-2.05L194.18-2.05 194.18-17.8 194.53-16.5 183.28-31.7Q182.98-32.1 182.86-32.48 182.73-32.85 182.73-33.2L182.73-33.2Q182.73-34.05 183.43-34.63 184.13-35.2 184.83-35.2L184.83-35.2Q185.83-35.2 186.48-34.25L186.48-34.25 196.83-20.05 195.88-20.2 205.83-34.2Q206.48-35.2 207.48-35.2ZM236.33-13L236.33-13Q236.33-9.1 234.63-6.05 232.93-3 230-1.25 227.08 0.5 223.38 0.5L223.38 0.5Q219.73 0.5 216.8-1.25 213.88-3 212.15-6.05 210.43-9.1 210.43-13L210.43-13Q210.43-16.9 212.15-19.95 213.88-23 216.8-24.75 219.73-26.5 223.38-26.5L223.38-26.5Q227.08-26.5 230-24.75 232.93-23 234.63-19.95 236.33-16.9 236.33-13ZM232.33-13L232.33-13Q232.33-15.9 231.15-18.1 229.98-20.3 227.95-21.55 225.93-22.8 223.38-22.8L223.38-22.8Q220.88-22.8 218.83-21.55 216.78-20.3 215.6-18.1 214.43-15.9 214.43-13L214.43-13Q214.43-10.15 215.6-7.95 216.78-5.75 218.83-4.48 220.88-3.2 223.38-3.2L223.38-3.2Q225.93-3.2 227.95-4.48 229.98-5.75 231.15-7.95 232.33-10.15 232.33-13ZM261.48-25.85L261.48-25.85Q262.38-25.85 262.93-25.28 263.48-24.7 263.48-23.85L263.48-23.85 263.48-10.2Q263.48-5.15 260.65-2.38 257.82 0.4 252.78 0.4L252.78 0.4Q247.78 0.4 244.95-2.38 242.13-5.15 242.13-10.2L242.13-10.2 242.13-23.85Q242.13-24.7 242.7-25.28 243.28-25.85 244.13-25.85L244.13-25.85Q245.03-25.85 245.58-25.28 246.13-24.7 246.13-23.85L246.13-23.85 246.13-10.2Q246.13-6.8 247.88-5.05 249.63-3.3 252.78-3.3L252.78-3.3Q256.03-3.3 257.75-5.05 259.48-6.8 259.48-10.2L259.48-10.2 259.48-23.85Q259.48-24.7 260.05-25.28 260.63-25.85 261.48-25.85ZM272.87 0L272.87 0Q272.02 0 271.45-0.6 270.87-1.2 270.87-2.05L270.87-2.05 270.87-23.85Q270.87-24.7 271.45-25.28 272.02-25.85 272.87-25.85L272.87-25.85Q273.77-25.85 274.32-25.28 274.87-24.7 274.87-23.85L274.87-23.85 274.87-17.25 274.27-18.3Q274.57-19.85 275.35-21.33 276.12-22.8 277.32-23.98 278.52-25.15 280.07-25.83 281.62-26.5 283.47-26.5L283.47-26.5Q284.57-26.5 285.5-25.98 286.42-25.45 286.42-24.5L286.42-24.5Q286.42-23.45 285.87-22.95 285.32-22.45 284.62-22.45L284.62-22.45Q283.97-22.45 283.37-22.73 282.77-23 281.87-23L281.87-23Q280.62-23 279.4-22.33 278.17-21.65 277.15-20.4 276.12-19.15 275.5-17.57 274.87-16 274.87-14.2L274.87-14.2 274.87-2.05Q274.87-1.2 274.3-0.6 273.72 0 272.87 0ZM307.37-35L319.87-35Q323.52-35 326.29-33.63 329.07-32.25 330.92-29.8 332.77-27.35 333.69-24.18 334.62-21 334.62-17.5L334.62-17.5Q334.62-12.7 332.97-8.72 331.32-4.75 328.07-2.38 324.82 0 319.87 0L319.87 0 307.37 0Q306.52 0 305.94-0.6 305.37-1.2 305.37-2.05L305.37-2.05 305.37-33Q305.37-33.85 305.94-34.43 306.52-35 307.37-35L307.37-35ZM309.22-3.9L319.37-3.9Q323.22-3.9 325.64-5.75 328.07-7.6 329.19-10.7 330.32-13.8 330.32-17.5L330.32-17.5Q330.32-20.2 329.69-22.68 329.07-25.15 327.74-27.05 326.42-28.95 324.34-30.05 322.27-31.15 319.37-31.15L319.37-31.15 309.12-31.15 309.52-31.55 309.52-3.4 309.22-3.9ZM361.62-26.1L361.62-26.1Q362.51-26.1 363.06-25.53 363.62-24.95 363.62-24.1L363.62-24.1 363.62-2.05Q363.62-1.2 363.04-0.6 362.47 0 361.62 0L361.62 0Q360.76 0 360.19-0.6 359.62-1.2 359.62-2.05L359.62-2.05 359.62-6.8 360.56-6.9Q360.56-5.8 359.81-4.5 359.06-3.2 357.76-2.08 356.47-0.95 354.72-0.23 352.97 0.5 350.92 0.5L350.92 0.5Q347.51 0.5 344.79-1.28 342.06-3.05 340.51-6.1 338.97-9.15 338.97-13.05L338.97-13.05Q338.97-17 340.54-20.03 342.12-23.05 344.79-24.78 347.47-26.5 350.81-26.5L350.81-26.5Q352.97-26.5 354.81-25.8 356.67-25.1 358.04-23.9 359.42-22.7 360.17-21.25 360.92-19.8 360.92-18.35L360.92-18.35 359.62-18.65 359.62-24.1Q359.62-24.95 360.19-25.53 360.76-26.1 361.62-26.1ZM351.31-3.2L351.31-3.2Q353.81-3.2 355.74-4.5 357.67-5.8 358.76-8.03 359.87-10.25 359.87-13.05L359.87-13.05Q359.87-15.8 358.76-18.03 357.67-20.25 355.74-21.53 353.81-22.8 351.31-22.8L351.31-22.8Q348.87-22.8 346.94-21.55 345.01-20.3 343.92-18.1 342.81-15.9 342.81-13.05L342.81-13.05Q342.81-10.25 343.92-8.03 345.01-5.8 346.94-4.5 348.87-3.2 351.31-3.2ZM389.76-26.25L389.76-26.25Q390.61-26.25 391.19-25.68 391.76-25.1 391.76-24.25L391.76-24.25 391.76-2.45Q391.76 1.75 390.11 4.53 388.46 7.3 385.69 8.65 382.91 10 379.41 10L379.41 10Q377.46 10 375.66 9.6 373.86 9.2 372.71 8.55L372.71 8.55Q371.76 8.1 371.39 7.43 371.01 6.75 371.26 6L371.26 6Q371.61 5.1 372.29 4.75 372.96 4.4 373.71 4.75L373.71 4.75Q374.51 5.1 376.04 5.73 377.56 6.35 379.46 6.35L379.46 6.35Q382.06 6.35 383.91 5.35 385.76 4.35 386.76 2.43 387.76 0.5 387.76-2.35L387.76-2.35 387.76-5.9 388.36-4.65Q387.56-3.1 386.21-1.95 384.86-0.8 383.11-0.15 381.36 0.5 379.26 0.5L379.26 0.5Q376.41 0.5 374.44-0.73 372.46-1.95 371.44-4.13 370.41-6.3 370.41-9.15L370.41-9.15 370.41-24.25Q370.41-25.1 370.99-25.68 371.56-26.25 372.41-26.25L372.41-26.25Q373.31-26.25 373.86-25.68 374.41-25.1 374.41-24.25L374.41-24.25 374.41-10.05Q374.41-6.65 375.91-4.93 377.41-3.2 380.56-3.2L380.56-3.2Q382.56-3.2 384.19-4.1 385.81-5 386.79-6.58 387.76-8.15 387.76-10.05L387.76-10.05 387.76-24.25Q387.76-25.1 388.31-25.68 388.86-26.25 389.76-26.25ZM404.26-0.25L404.26-0.25Q404.26 0.75 403.83 1.88 403.41 3 402.66 4 401.91 5 401.01 5.63 400.11 6.25 399.21 6.25L399.21 6.25Q398.51 6.25 398.03 5.93 397.56 5.6 397.56 4.85L397.56 4.85Q397.56 3.9 398.19 3.75 398.81 3.6 399.41 3.3L399.41 3.3Q400.06 2.95 400.44 2.33 400.81 1.7 400.81 1L400.81 1Q400.81 0.45 400.44 0.08 400.06-0.3 399.46-0.3L399.46-0.3Q399.11-0.3 398.73-0.2 398.36-0.1 398.11 0.1L398.11 0.1Q397.76-0.15 397.51-0.5 397.26-0.85 397.26-1.4L397.26-1.4Q397.31-2.15 397.83-2.75 398.36-3.35 399.19-3.7 400.01-4.05 400.76-4.05L400.76-4.05Q402.31-4.05 403.28-3.08 404.26-2.1 404.26-0.25ZM456.2-17.5L456.2-17.5Q456.2-13.65 454.95-10.38 453.7-7.1 451.45-4.65 449.2-2.2 446.11-0.85 443 0.5 439.36 0.5L439.36 0.5Q435.65 0.5 432.58-0.85 429.5-2.2 427.25-4.65 425-7.1 423.75-10.38 422.5-13.65 422.5-17.5L422.5-17.5Q422.5-21.4 423.75-24.68 425-27.95 427.25-30.38 429.5-32.8 432.58-34.15 435.65-35.5 439.36-35.5L439.36-35.5Q443-35.5 446.11-34.15 449.2-32.8 451.45-30.38 453.7-27.95 454.95-24.68 456.2-21.4 456.2-17.5ZM451.9-17.5L451.9-17.5Q451.9-21.6 450.28-24.75 448.65-27.9 445.86-29.7 443.06-31.5 439.36-31.5L439.36-31.5Q435.65-31.5 432.83-29.7 430-27.9 428.4-24.75 426.81-21.6 426.81-17.5L426.81-17.5Q426.81-13.45 428.4-10.28 430-7.1 432.83-5.3 435.65-3.5 439.36-3.5L439.36-3.5Q443.06-3.5 445.86-5.3 448.65-7.1 450.28-10.28 451.9-13.45 451.9-17.5ZM475-26.5L475-26.5Q478.4-26.5 480.35-25.1 482.3-23.7 483.13-21.35 483.95-19 483.95-16.1L483.95-16.1 483.95-2.05Q483.95-1.2 483.38-0.6 482.8 0 481.95 0L481.95 0Q481.1 0 480.53-0.6 479.95-1.2 479.95-2.05L479.95-2.05 479.95-16Q479.95-17.9 479.38-19.43 478.8-20.95 477.48-21.88 476.15-22.8 473.85-22.8L473.85-22.8Q471.75-22.8 470-21.88 468.25-20.95 467.2-19.43 466.15-17.9 466.15-16L466.15-16 466.15-2.05Q466.15-1.2 465.58-0.6 465 0 464.15 0L464.15 0Q463.3 0 462.73-0.6 462.15-1.2 462.15-2.05L462.15-2.05 462.15-23.85Q462.15-24.7 462.73-25.28 463.3-25.85 464.15-25.85L464.15-25.85Q465.05-25.85 465.6-25.28 466.15-24.7 466.15-23.85L466.15-23.85 466.15-20.3 465.15-19.2Q465.4-20.5 466.3-21.83 467.2-23.15 468.55-24.2 469.9-25.25 471.55-25.88 473.2-26.5 475-26.5ZM503.05 0.5L503.05 0.5Q499.05 0.5 496.05-1.2 493.05-2.9 491.4-5.88 489.75-8.85 489.75-12.75L489.75-12.75Q489.75-17.1 491.47-20.18 493.2-23.25 495.95-24.88 498.7-26.5 501.8-26.5L501.8-26.5Q504.15-26.5 506.27-25.65 508.4-24.8 510.07-23.18 511.75-21.55 512.75-19.28 513.75-17 513.8-14.2L513.8-14.2Q513.75-13.4 513.15-12.85 512.55-12.3 511.75-12.3L511.75-12.3 492-12.3 491.1-15.75 510.35-15.75 509.55-15.05 509.55-16.15Q509.4-18.2 508.22-19.68 507.05-21.15 505.35-21.95 503.65-22.75 501.8-22.75L501.8-22.75Q500.3-22.75 498.82-22.23 497.35-21.7 496.17-20.53 495-19.35 494.3-17.5 493.6-15.65 493.6-13.05L493.6-13.05Q493.6-10.15 494.77-7.95 495.95-5.75 498.05-4.48 500.15-3.2 502.9-3.2L502.9-3.2Q504.7-3.2 506-3.65 507.3-4.1 508.22-4.78 509.15-5.45 509.8-6.15L509.8-6.15Q510.45-6.6 511.1-6.6L511.1-6.6Q511.8-6.6 512.3-6.1 512.8-5.6 512.8-4.9L512.8-4.9Q512.8-4.05 512-3.4L512-3.4Q510.55-1.85 508.17-0.68 505.8 0.5 503.05 0.5ZM559.19-32.7L559.19-32.7Q560.04-32.25 560.17-31.35 560.29-30.45 559.69-29.7L559.69-29.7Q559.24-29.05 558.54-29 557.84-28.95 557.14-29.3L557.14-29.3Q555.49-30.3 553.59-30.88 551.69-31.45 549.59-31.45L549.59-31.45Q546.64-31.45 544.19-30.43 541.74-29.4 539.94-27.55 538.14-25.7 537.14-23.15 536.14-20.6 536.14-17.5L536.14-17.5Q536.14-14.2 537.19-11.6 538.24-9 540.07-7.18 541.89-5.35 544.32-4.4 546.74-3.45 549.59-3.45L549.59-3.45Q551.64-3.45 553.54-4 555.44-4.55 557.14-5.6L557.14-5.6Q557.84-5.95 558.54-5.85 559.24-5.75 559.74-5.15L559.74-5.15Q560.34-4.35 560.19-3.48 560.04-2.6 559.24-2.2L559.24-2.2Q557.99-1.45 556.39-0.83 554.79-0.2 553.07 0.15 551.34 0.5 549.59 0.5L549.59 0.5Q545.99 0.5 542.79-0.75 539.59-2 537.14-4.35 534.69-6.7 533.27-10.03 531.84-13.35 531.84-17.5L531.84-17.5Q531.84-21.4 533.19-24.65 534.54-27.9 536.97-30.3 539.39-32.7 542.62-34.05 545.84-35.4 549.59-35.4L549.59-35.4Q552.19-35.4 554.67-34.7 557.14-34 559.19-32.7ZM584.89-25.85L584.89-25.85Q585.79-25.85 586.34-25.28 586.89-24.7 586.89-23.85L586.89-23.85 586.89-10.2Q586.89-5.15 584.07-2.38 581.24 0.4 576.19 0.4L576.19 0.4Q571.19 0.4 568.37-2.38 565.54-5.15 565.54-10.2L565.54-10.2 565.54-23.85Q565.54-24.7 566.12-25.28 566.69-25.85 567.54-25.85L567.54-25.85Q568.44-25.85 568.99-25.28 569.54-24.7 569.54-23.85L569.54-23.85 569.54-10.2Q569.54-6.8 571.29-5.05 573.04-3.3 576.19-3.3L576.19-3.3Q579.44-3.3 581.17-5.05 582.89-6.8 582.89-10.2L582.89-10.2 582.89-23.85Q582.89-24.7 583.47-25.28 584.04-25.85 584.89-25.85ZM607.04-26.25L607.04-26.25Q610.44-26.25 613.14-24.55 615.84-22.85 617.41-19.85 618.99-16.85 618.99-12.95L618.99-12.95Q618.99-9.1 617.41-6.08 615.84-3.05 613.16-1.33 610.49 0.4 607.14 0.4L607.14 0.4Q605.29 0.4 603.66-0.18 602.04-0.75 600.71-1.68 599.39-2.6 598.49-3.78 597.59-4.95 597.19-6.1L597.19-6.1 598.29-6.8 598.29 7.95Q598.29 8.8 597.74 9.4 597.19 10 596.29 10L596.29 10Q595.44 10 594.86 9.43 594.29 8.85 594.29 7.95L594.29 7.95 594.29-24Q594.29-24.85 594.86-25.43 595.44-26 596.29-26L596.29-26Q597.19-26 597.74-25.43 598.29-24.85 598.29-24L598.29-24 598.29-19.55 597.54-19.95Q597.89-21.2 598.76-22.35 599.64-23.5 600.91-24.38 602.19-25.25 603.76-25.75 605.34-26.25 607.04-26.25ZM606.59-22.55L606.59-22.55Q604.09-22.55 602.16-21.3 600.24-20.05 599.16-17.9 598.09-15.75 598.09-12.95L598.09-12.95Q598.09-10.2 599.16-8 600.24-5.8 602.16-4.55 604.09-3.3 606.59-3.3L606.59-3.3Q609.09-3.3 610.99-4.55 612.89-5.8 613.99-8 615.09-10.2 615.09-12.95L615.09-12.95Q615.09-15.75 613.99-17.9 612.89-20.05 610.99-21.3 609.09-22.55 606.59-22.55ZM659.53-26.1L659.53-26.1Q660.43-26.1 660.98-25.53 661.53-24.95 661.53-24.1L661.53-24.1 661.53-2.05Q661.53-1.2 660.96-0.6 660.38 0 659.53 0L659.53 0Q658.68 0 658.11-0.6 657.53-1.2 657.53-2.05L657.53-2.05 657.53-6.8 658.48-6.9Q658.48-5.8 657.73-4.5 656.98-3.2 655.68-2.08 654.38-0.95 652.63-0.23 650.88 0.5 648.83 0.5L648.83 0.5Q645.43 0.5 642.71-1.28 639.98-3.05 638.43-6.1 636.88-9.15 636.88-13.05L636.88-13.05Q636.88-17 638.46-20.03 640.03-23.05 642.71-24.78 645.38-26.5 648.73-26.5L648.73-26.5Q650.88-26.5 652.73-25.8 654.58-25.1 655.96-23.9 657.33-22.7 658.08-21.25 658.83-19.8 658.83-18.35L658.83-18.35 657.53-18.65 657.53-24.1Q657.53-24.95 658.11-25.53 658.68-26.1 659.53-26.1ZM649.23-3.2L649.23-3.2Q651.73-3.2 653.66-4.5 655.58-5.8 656.68-8.03 657.78-10.25 657.78-13.05L657.78-13.05Q657.78-15.8 656.68-18.03 655.58-20.25 653.66-21.53 651.73-22.8 649.23-22.8L649.23-22.8Q646.78-22.8 644.86-21.55 642.93-20.3 641.83-18.1 640.73-15.9 640.73-13.05L640.73-13.05Q640.73-10.25 641.83-8.03 642.93-5.8 644.86-4.5 646.78-3.2 649.23-3.2ZM667.93-25.7L667.93-25.7 679.68-25.7Q680.48-25.7 681.01-25.15 681.53-24.6 681.53-23.85L681.53-23.85Q681.53-23.05 681.01-22.53 680.48-22 679.68-22L679.68-22 667.93-22Q667.18-22 666.63-22.55 666.08-23.1 666.08-23.9L666.08-23.9Q666.08-24.65 666.63-25.18 667.18-25.7 667.93-25.7ZM673.18-32.5L673.18-32.5Q674.03-32.5 674.58-31.93 675.13-31.35 675.13-30.5L675.13-30.5 675.13-6.35Q675.13-5.15 675.48-4.55 675.83-3.95 676.41-3.73 676.98-3.5 677.53-3.5L677.53-3.5Q678.03-3.5 678.41-3.68 678.78-3.85 679.28-3.85L679.28-3.85Q679.78-3.85 680.21-3.38 680.63-2.9 680.63-2.15L680.63-2.15Q680.63-1.25 679.58-0.63 678.53 0 677.23 0L677.23 0Q676.53 0 675.51-0.1 674.48-0.2 673.48-0.75 672.48-1.3 671.81-2.58 671.13-3.85 671.13-6.15L671.13-6.15 671.13-30.5Q671.13-31.35 671.73-31.93 672.33-32.5 673.18-32.5ZM721.88-26.1L721.88-26.1Q722.78-26.1 723.33-25.53 723.88-24.95 723.88-24.1L723.88-24.1 723.88-2.05Q723.88-1.2 723.3-0.6 722.73 0 721.88 0L721.88 0Q721.03 0 720.45-0.6 719.88-1.2 719.88-2.05L719.88-2.05 719.88-6.8 720.83-6.9Q720.83-5.8 720.08-4.5 719.33-3.2 718.03-2.08 716.73-0.95 714.98-0.23 713.23 0.5 711.18 0.5L711.18 0.5Q707.78 0.5 705.05-1.28 702.33-3.05 700.78-6.1 699.23-9.15 699.23-13.05L699.23-13.05Q699.23-17 700.8-20.03 702.38-23.05 705.05-24.78 707.73-26.5 711.08-26.5L711.08-26.5Q713.23-26.5 715.08-25.8 716.93-25.1 718.3-23.9 719.68-22.7 720.43-21.25 721.18-19.8 721.18-18.35L721.18-18.35 719.88-18.65 719.88-24.1Q719.88-24.95 720.45-25.53 721.03-26.1 721.88-26.1ZM711.58-3.2L711.58-3.2Q714.08-3.2 716-4.5 717.93-5.8 719.03-8.03 720.13-10.25 720.13-13.05L720.13-13.05Q720.13-15.8 719.03-18.03 717.93-20.25 716-21.53 714.08-22.8 711.58-22.8L711.58-22.8Q709.13-22.8 707.2-21.55 705.28-20.3 704.18-18.1 703.08-15.9 703.08-13.05L703.08-13.05Q703.08-10.25 704.18-8.03 705.28-5.8 707.2-4.5 709.13-3.2 711.58-3.2ZM756.57 0L756.57 0Q755.67 0 755.07-0.6 754.47-1.2 754.47-2.05L754.47-2.05 754.47-32.95 758.72-32.95 758.72-2.05Q758.72-1.2 758.12-0.6 757.52 0 756.57 0ZM768.22-31.2L744.97-31.2Q744.12-31.2 743.55-31.73 742.97-32.25 742.97-33.1L742.97-33.1Q742.97-33.95 743.55-34.48 744.12-35 744.97-35L744.97-35 768.22-35Q769.07-35 769.67-34.48 770.27-33.95 770.27-33.1L770.27-33.1Q770.27-32.2 769.67-31.7 769.07-31.2 768.22-31.2L768.22-31.2ZM779.42-24.25L779.42-2.05Q779.42-1.2 778.84-0.6 778.27 0 777.42 0L777.42 0Q776.52 0 775.97-0.6 775.42-1.2 775.42-2.05L775.42-2.05 775.42-24.25Q775.42-25.1 775.99-25.68 776.57-26.25 777.42-26.25L777.42-26.25Q778.27-26.25 778.84-25.68 779.42-25.1 779.42-24.25L779.42-24.25ZM777.42-29.6L777.42-29.6Q776.17-29.6 775.57-30.1 774.97-30.6 774.97-31.65L774.97-31.65 774.97-32.35Q774.97-33.4 775.62-33.9 776.27-34.4 777.47-34.4L777.47-34.4Q778.67-34.4 779.27-33.9 779.87-33.4 779.87-32.35L779.87-32.35 779.87-31.65Q779.87-30.6 779.24-30.1 778.62-29.6 777.42-29.6ZM798.97-26.25L798.97-26.25Q802.37-26.25 804.49-24.53 806.62-22.8 807.32-19.65L807.32-19.65 806.57-19.65 806.92-20.55Q807.52-21.95 808.97-23.25 810.42-24.55 812.32-25.4 814.22-26.25 816.27-26.25L816.27-26.25Q819.57-26.25 821.47-24.83 823.37-23.4 824.19-21.03 825.02-18.65 825.02-15.7L825.02-15.7 825.02-2.05Q825.02-1.2 824.44-0.6 823.87 0 823.02 0L823.02 0Q822.12 0 821.57-0.6 821.02-1.2 821.02-2.05L821.02-2.05 821.02-15.6Q821.02-17.55 820.44-19.13 819.87-20.7 818.59-21.63 817.32-22.55 815.12-22.55L815.12-22.55Q813.07-22.55 811.37-21.63 809.67-20.7 808.67-19.13 807.67-17.55 807.67-15.6L807.67-15.6 807.67-2.05Q807.67-1.2 807.12-0.6 806.57 0 805.67 0L805.67 0Q804.82 0 804.24-0.6 803.67-1.2 803.67-2.05L803.67-2.05 803.67-15.75Q803.67-17.65 803.14-19.18 802.62-20.7 801.37-21.63 800.12-22.55 797.92-22.55L797.92-22.55Q795.92-22.55 794.27-21.63 792.62-20.7 791.62-19.18 790.62-17.65 790.62-15.75L790.62-15.75 790.62-2.05Q790.62-1.2 790.04-0.6 789.47 0 788.62 0L788.62 0Q787.77 0 787.19-0.6 786.62-1.2 786.62-2.05L786.62-2.05 786.62-23.85Q786.62-24.7 787.19-25.28 787.77-25.85 788.62-25.85L788.62-25.85Q789.52-25.85 790.07-25.28 790.62-24.7 790.62-23.85L790.62-23.85 790.62-20.05 789.52-18.85Q789.72-20.15 790.54-21.45 791.37-22.75 792.67-23.85 793.97-24.95 795.57-25.6 797.17-26.25 798.97-26.25ZM844.11 0.5L844.11 0.5Q840.11 0.5 837.11-1.2 834.11-2.9 832.46-5.88 830.81-8.85 830.81-12.75L830.81-12.75Q830.81-17.1 832.54-20.18 834.26-23.25 837.01-24.88 839.76-26.5 842.86-26.5L842.86-26.5Q845.21-26.5 847.34-25.65 849.46-24.8 851.14-23.18 852.81-21.55 853.81-19.28 854.81-17 854.86-14.2L854.86-14.2Q854.81-13.4 854.21-12.85 853.61-12.3 852.81-12.3L852.81-12.3 833.06-12.3 832.16-15.75 851.41-15.75 850.61-15.05 850.61-16.15Q850.46-18.2 849.29-19.68 848.11-21.15 846.41-21.95 844.71-22.75 842.86-22.75L842.86-22.75Q841.36-22.75 839.89-22.23 838.41-21.7 837.24-20.53 836.06-19.35 835.36-17.5 834.66-15.65 834.66-13.05L834.66-13.05Q834.66-10.15 835.84-7.95 837.01-5.75 839.11-4.48 841.21-3.2 843.96-3.2L843.96-3.2Q845.76-3.2 847.06-3.65 848.36-4.1 849.29-4.78 850.21-5.45 850.86-6.15L850.86-6.15Q851.51-6.6 852.16-6.6L852.16-6.6Q852.86-6.6 853.36-6.1 853.86-5.6 853.86-4.9L853.86-4.9Q853.86-4.05 853.06-3.4L853.06-3.4Q851.61-1.85 849.24-0.68 846.86 0.5 844.11 0.5ZM862.26-10.2L862.26-10.2Q861.06-10.2 860.96-11.55L860.96-11.55 860.11-32.4Q860.06-33.55 860.61-34.27 861.16-35 862.21-35L862.21-35Q863.31-35 863.86-34.27 864.41-33.55 864.36-32.4L864.36-32.4 863.51-11.55Q863.41-10.2 862.26-10.2ZM862.46 0L862.01 0Q860.96 0 860.41-0.63 859.86-1.25 859.86-2.3L859.86-2.3 859.86-3.3Q859.86-4.35 860.41-4.95 860.96-5.55 862.01-5.55L862.01-5.55 862.46-5.55Q863.51-5.55 864.06-4.95 864.61-4.35 864.61-3.3L864.61-3.3 864.61-2.3Q864.61-1.25 864.06-0.63 863.51 0 862.46 0L862.46 0Z" opacity="1" transform="matrix(1,0,0,1,0,0)" fill="#542633" class="slogan-text-1" data-fill-palette-color="secondary" id="text-1"></path></svg></g></svg></g></svg></g></svg></g><g></g></svg></g><defs></defs></svg><rect width="395.52" height="128.66912755396865" fill="none" stroke="none" visibility="hidden"></rect></g></svg></g></svg>